# xmcd
#
# Track frame offsets:
#	150
#	14904
#	31139
#	43212
#	56495
#	71755
#	86340
#	101014
#	116360
#	131149
#	146702
#
# Disc length: 2200 seconds
#
# Revision: 1
# Processed by: cddbd v1.5.2PL0 Copyright (c) Steve Scherf et al.
# Submitted via: audiograbber 1.83.01
#
DISCID=9e08960b
DTITLE=Deanne - If only ...
DYEAR=1900
DGENRE=Country
TTITLE0=Girls will be boys
TTITLE1=That Cadillac
TTITLE2=Cupid
TTITLE3=Rollin' dice
TTITLE4=A soft place to fall
TTITLE5=If only
TTITLE6=Blue side of my heart
TTITLE7=In my dreams
TTITLE8=Fallen out of love
TTITLE9=Hand on my heart
TTITLE10=Got it all wrong
EXTD=
EXTT0=
EXTT1=
EXTT2=
EXTT3=
EXTT4=
EXTT5=
EXTT6=
EXTT7=
EXTT8=
EXTT9=
EXTT10=
PLAYORDER=
